<?xml version="1.0" standalone="no"?>
<!DOCTYPE svg PUBLIC "-//W3C//DTD SVG 20010904//EN"
 "http://www.w3.org/TR/2001/REC-SVG-20010904/DTD/svg10.dtd">
<svg version="1.0" xmlns="http://www.w3.org/2000/svg"
 width="260.000000pt" height="260.000000pt" viewBox="0 0 260.000000 260.000000"
 preserveAspectRatio="xMidYMid meet">
<metadata>
Created by potrace 1.11, written by Peter Selinger 2001-2013
</metadata>
<g transform="translate(0.000000,260.000000) scale(0.100000,-0.100000)"
fill="#000000" stroke="none">
<path d="M0 1300 l0 -1300 1300 0 1300 0 0 1300 0 1300 -1300 0 -1300 0 0
-1300z m2218 788 c17 -17 17 -339 0 -356 -17 -17 -1819 -17 -1836 0 -17 17
-17 339 0 356 17 17 1819 17 1836 0z m-250 -610 c17 -17 17 -339 0 -356 -17
-17 -1569 -17 -1586 0 -17 17 -17 339 0 356 17 17 1569 17 1586 0z m-270 -610
c17 -17 17 -339 0 -356 -17 -17 -1299 -17 -1316 0 -17 17 -17 354 1 361 6 3
302 6 657 6 490 1 649 -2 658 -11z"/>
</g>
</svg>
